<svg width="192" height="192" viewBox="0 0 192 192" fill="none" xmlns="http://www.w3.org/2000/svg">
<rect width="192" height="192" fill="none"/>
<path fill-rule="evenodd" clip-rule="evenodd" d="M47.3096 52.707L36.0353 61.6027C35.8559 61.7442 35.7658 61.8159 35.7029 61.8711L35.698 61.8754L35.6976 61.882C35.6933 61.9656 35.6928 62.0807 35.6928 62.3092V62.9213H46.4096C46.8544 62.9213 47.0977 62.9202 47.2726 62.9059L47.2924 62.9041L47.2941 62.8844C47.3084 62.7095 47.3096 62.4661 47.3096 62.0213V52.707ZM35.6928 65.9213V86.6951C35.6928 87.5235 35.0212 88.1951 34.1928 88.1951C33.3644 88.1951 32.6928 87.5235 32.6928 86.6951V62.3092L32.6926 62.2198C32.6916 61.8892 32.6903 61.4731 32.8022 61.0703C32.899 60.7214 33.0583 60.3929 33.2722 60.1008C33.5191 59.7635 33.8465 59.5067 34.1067 59.3028L34.177 59.2475L46.1018 49.8385L46.1522 49.7986C46.3406 49.6493 46.5778 49.4612 46.853 49.3223C47.0919 49.2016 47.3459 49.1135 47.6081 49.0602C47.9102 48.9989 48.213 48.9996 48.4534 49.0001L48.5176 49.0002H66.872L66.9198 49.0002C67.2984 49.0002 67.6671 49.0001 67.9793 49.0256C68.3222 49.0536 68.7268 49.1197 69.1339 49.3272C69.6984 49.6148 70.1574 50.0737 70.445 50.6382C70.6524 51.0454 70.7185 51.45 70.7466 51.7929C70.7721 52.1051 70.772 52.4738 70.772 52.8524L70.772 52.9002V86.6951C70.772 87.5235 70.1004 88.1951 69.272 88.1951C68.4435 88.1951 67.772 87.5235 67.772 86.6951V52.9002C67.772 52.4554 67.7708 52.212 67.7565 52.0372L67.7548 52.0174L67.735 52.0157C67.5601 52.0014 67.3168 52.0002 66.872 52.0002H50.3096V62.0213L50.3096 62.0692C50.3096 62.4477 50.3097 62.8164 50.2842 63.1287C50.2561 63.4716 50.19 63.8762 49.9826 64.2833C49.695 64.8478 49.236 65.3067 48.6715 65.5943C48.2644 65.8018 47.8598 65.8679 47.5169 65.8959C47.2047 65.9214 46.836 65.9214 46.4574 65.9213L46.4096 65.9213H35.6928ZM27.2978 75.5083C28.0942 75.7363 28.555 76.5668 28.3269 77.3632L24.4898 90.7635H47.3477H48.8477V92.6634C48.9377 93.2519 49.2245 93.8014 49.6713 94.227C50.218 94.7477 50.9596 95.0403 51.7328 95.0403C52.506 95.0403 53.2475 94.7477 53.7942 94.227C54.2407 93.8018 54.5274 93.2529 54.6175 92.6649V90.7635H56.1175H79.1176L76.574 78.6507C76.4038 77.8399 76.923 77.0447 77.7338 76.8744C78.5445 76.7042 79.3398 77.2234 79.51 78.0342L82.4333 91.9553C82.4546 92.0566 82.4653 92.1599 82.4653 92.2635V108.969C82.4653 109.797 81.7937 110.469 80.9653 110.469H22.5C21.6716 110.469 21 109.797 21 108.969V93.7635V92.2635V90.7635H21.3692L25.4429 76.5374C25.6709 75.741 26.5014 75.2802 27.2978 75.5083ZM57.3632 93.7635C57.0949 94.677 56.5835 95.5185 55.8669 96.201C54.7704 97.2453 53.2834 97.832 51.7328 97.832C50.1822 97.832 48.6951 97.2453 47.5986 96.201C46.882 95.5185 46.3706 94.677 46.1023 93.7635H24V107.469H79.4653V93.7635H57.3632Z" fill="black"/>
<path d="M106.72 69.48V87.56H108.32V69.48H106.72ZM103.68 76.84V78.2H107.16V76.84H103.68ZM102.62 69.88V86.64H104.18V69.88H102.62ZM93.86 71.66V82.1H95.52V71.66H93.86ZM93.86 81.44V82.88H95.02C96.96 82.88 99.04 82.78 101.5 82.3L101.32 80.86C98.96 81.32 96.88 81.44 95.02 81.44H93.86ZM116.999 71.56V82.72H123.899V71.56H116.999ZM122.339 72.88V81.4H118.559V72.88H122.339ZM130.119 69.48V87.56H131.719V69.48H130.119ZM123.059 76.28V77.66H127.219V76.28H123.059ZM126.539 69.86V86.66H128.119V69.86H126.539ZM134.758 83.88V85.26H151.138V83.88H134.758ZM142.078 79.2V84.26H143.738V79.2H142.078ZM136.658 70.98V79.5H149.138V70.98H136.658ZM147.538 72.32V78.16H138.278V72.32H147.538ZM162.557 71.42V72.88C162.557 75.46 160.757 77.8 158.037 78.76L158.877 80.08C161.917 78.98 163.917 76.2 163.917 72.88V71.42H162.557ZM162.857 71.42V72.86C162.857 75.94 164.777 78.52 167.797 79.52L168.597 78.22C165.937 77.34 164.217 75.22 164.217 72.86V71.42H162.857ZM158.537 70.82V72.18H168.197V70.82H158.537ZM170.477 69.48V80.38H172.137V69.48H170.477ZM171.677 74.06V75.46H174.817V74.06H171.677ZM166.377 80.86C162.697 80.86 160.437 82.08 160.437 84.18C160.437 86.3 162.697 87.52 166.377 87.52C170.057 87.52 172.317 86.3 172.317 84.18C172.317 82.08 170.057 80.86 166.377 80.86ZM166.377 82.2C169.057 82.2 170.697 82.92 170.697 84.18C170.697 85.46 169.057 86.22 166.377 86.22C163.697 86.22 162.057 85.46 162.057 84.18C162.057 82.92 163.697 82.2 166.377 82.2Z" fill="black"/>
</svg>
